<?xml version="1.0" standalone="no"?>
<!DOCTYPE svg PUBLIC "-//W3C//DTD SVG 20010904//EN"
 "http://www.w3.org/TR/2001/REC-SVG-20010904/DTD/svg10.dtd">
<svg version="1.0" xmlns="http://www.w3.org/2000/svg"
 width="500.000000pt" height="500.000000pt" viewBox="0 0 500.000000 500.000000"
 preserveAspectRatio="xMidYMid meet">
<metadata>
Created by potrace 1.14, written by Peter Selinger 2001-2017
</metadata>
<g transform="translate(0.000000,500.000000) scale(0.100000,-0.100000)"
fill="#000000" stroke="none">
<path d="M0 2500 l0 -2500 2500 0 2500 0 0 2500 0 2500 -2500 0 -2500 0 0
-2500z m3047 1470 c143 -34 293 -121 399 -232 179 -186 258 -426 230 -690 l-8
-78 44 0 c131 0 342 -86 466 -190 211 -177 313 -416 299 -703 -21 -435 -384
-776 -827 -778 -185 -1 -343 49 -497 156 l-64 45 -57 -35 c-155 -95 -338 -110
-489 -40 l-53 24 -97 -45 c-54 -25 -93 -41 -88 -36 6 5 76 64 157 130 81 67
158 137 171 155 55 73 59 162 14 274 l-25 61 73 97 c181 241 266 492 252 739
-6 101 -32 243 -47 260 -13 13 -173 -40 -265 -87 -151 -78 -279 -200 -387
-367 -52 -81 -158 -289 -158 -312 0 -9 -24 -17 -75 -25 -127 -21 -221 -85
-244 -168 -16 -59 -75 -454 -68 -461 3 -3 73 35 156 85 l151 90 0 -52 0 -52
82 -49 82 -49 37 21 c21 12 40 22 43 22 4 0 6 -73 5 -162 l0 -163 -27 68 c-15
37 -30 67 -34 67 -4 0 -15 -24 -26 -52 -18 -49 -34 -66 -211 -216 -105 -89
-191 -160 -191 -157 0 3 76 84 169 180 l169 176 35 97 c34 96 34 97 15 108
-18 10 -29 3 -87 -58 -88 -91 -103 -84 -67 33 24 78 25 85 9 97 -9 6 -20 12
-24 12 -3 0 -32 -33 -62 -74 -55 -73 -57 -78 -129 -326 -40 -138 -74 -247 -76
-242 -2 8 50 340 63 398 l5 22 -278 5 c-212 3 -292 8 -341 21 -231 59 -425
242 -496 469 -22 68 -25 97 -25 221 0 118 4 154 21 207 62 188 189 336 360
419 43 20 87 40 98 43 19 5 21 12 21 84 0 147 47 260 152 366 129 131 319 186
491 141 68 -17 145 -54 195 -91 18 -14 35 -23 36 -22 2 2 13 37 26 78 41 130
141 275 253 369 206 172 477 234 744 172z m-178 -1065 c6 -42 11 -102 11 -134
0 -123 -44 -300 -105 -421 -28 -57 -133 -220 -141 -220 -2 0 21 49 51 110 116
231 159 445 124 609 -9 45 -8 55 12 91 13 22 26 40 30 40 3 0 12 -34 18 -75z
m-1152 -1877 c-3 -8 -6 -5 -6 6 -1 11 2 17 5 13 3 -3 4 -12 1 -19z"/>
</g>
</svg>
